<?xml version="1.0" encoding="iso-8859-1"?>
<!-- Generator: Adobe Illustrator 19.0.0, SVG Export Plug-In . SVG Version: 6.00 Build 0)  -->
<svg version="1.1" id="Capa_1" xmlns="http://www.w3.org/2000/svg" xmlns:xlink="http://www.w3.org/1999/xlink" x="0px" y="0px"
	 viewBox="0 0 512.001 512.001" style="enable-background:new 0 0 512.001 512.001;" xml:space="preserve">
<path style="fill:#FF525D;" d="M388.947,504.387v-46.551c0-40.92-18.485-77.525-47.569-101.909H170.623
	c-29.083,24.383-47.569,60.989-47.569,101.909v46.551"/>
<path style="fill:#EF4152;" d="M219.258,355.928h-48.635c-29.083,24.383-47.569,60.989-47.569,101.909v46.551h48.635v-46.551
	C171.689,416.917,190.174,380.311,219.258,355.928z"/>
<path style="fill:#4BC999;" d="M386.727,433.562c0,0-25.013-24.698-57.497-30.789c0,0,0.609,38.209-11.166,59.893
	c0,0-29.977-4.619-62.065-40.605c-32.078,35.986-62.065,40.605-62.065,40.605c-10.212-18.81-11.116-50.056-11.177-58.004
	c0-1.218,0.01-1.888,0.01-1.888c-32.484,6.091-57.487,30.789-57.487,30.789h-0.01c5.705-30.972,22.16-58.187,45.356-77.637h170.755
	c23.196,19.45,39.651,46.665,45.356,77.637H386.727z"/>
<path style="fill:#41B787;" d="M219.262,355.925c-15.643,13.115-28.221,29.774-36.504,48.736c0-1.218,0.01-1.888,0.01-1.888
	c-32.484,6.091-57.487,30.789-57.487,30.789h-0.01c5.705-30.972,22.16-58.187,45.356-77.637H219.262z"/>
<g>
	<path style="fill:#EFC1AB;" d="M379.473,292.124h-0.44v-71.973h42.29v30.122C421.323,273.388,402.586,292.124,379.473,292.124z"/>
	<path style="fill:#EFC1AB;" d="M132.526,292.124h0.44v-71.973h-42.29v30.122C90.676,273.388,109.413,292.124,132.526,292.124z"/>
</g>
<path style="fill:#4BC999;" d="M359.126,117.238H152.872c16.394-39.895,50.98-79.434,103.127-109.624
	C308.146,37.804,342.732,77.343,359.126,117.238z"/>
<path style="fill:#FFDAC5;" d="M187.965,151.24l102.451-9.512l88.048,66.587c0.376,3.898,0.568,7.847,0.568,11.836v56.857
	c0,67.943-55.081,104.386-123.033,104.386S132.966,344.952,132.966,277.01v-56.857c0-3.989,0.193-7.938,0.568-11.836L187.965,151.24
	z"/>
<path style="fill:#EFC1AB;" d="M173.637,277.009v-56.857c0-3.989,0.193-7.938,0.568-11.836l54.431-57.076l65.835-6.112l-4.495-3.4
	l-102.451,9.512l-54.431,57.076c-0.376,3.898-0.568,7.847-0.568,11.836v56.857c0,67.942,55.081,104.386,123.033,104.386
	c7.005,0,13.871-0.394,20.555-1.162C217.949,373.54,173.637,337.948,173.637,277.009z"/>
<path style="fill:#41B787;" d="M234.59,103.523c1.908,5.289,1.837,9.826,0.122,13.714h-81.84
	c16.394-39.895,50.98-79.434,103.127-109.624C255.999,7.614,213.181,44.189,234.59,103.523z"/>
<path style="fill:#FF525D;" d="M388.93,145.732v71.272c-62.217-21.297-128.272-27.216-192.62-17.765
	c-24.779,3.644-49.295,9.563-73.241,17.765v-71.282c0-12.506,8.253-23.561,20.282-26.992c17.552-5.005,35.347-8.821,53.284-11.451
	c57.294-8.375,115.938-4.558,172.013,11.451C380.677,122.161,388.93,133.216,388.93,145.732z"/>
<path style="fill:#EF4152;" d="M196.31,199.24c-24.779,3.644-49.295,9.563-73.241,17.765v-71.282
	c0-12.506,8.253-23.561,20.282-26.992c17.552-5.005,35.347-8.821,53.284-11.451l0.041,0.01
	C196.675,107.29,171.155,151.316,196.31,199.24z"/>
<circle style="fill:#4BC999;" cx="256.004" cy="477.618" r="17.257"/>
<g>
	<ellipse style="fill:#FCB997;" cx="334.931" cy="306.062" rx="16.75" ry="10.151"/>
	<ellipse style="fill:#FCB997;" cx="177.078" cy="306.062" rx="16.75" ry="10.151"/>
</g>
<path d="M198.923,253.814c-4.205,0-7.613,3.409-7.613,7.613v15.828c0,4.205,3.409,7.613,7.613,7.613
	c4.205,0,7.613-3.409,7.613-7.613v-15.828C206.536,257.223,203.127,253.814,198.923,253.814z"/>
<path d="M316.588,253.814c-4.205,0-7.613,3.409-7.613,7.613v15.828c0,4.205,3.409,7.613,7.613,7.613s7.613-3.409,7.613-7.613
	v-15.828C324.202,257.223,320.793,253.814,316.588,253.814z"/>
<path d="M275.044,317.243c-9.532,9.532-25.042,9.532-34.575,0c-2.973-2.973-7.794-2.973-10.766,0c-2.973,2.973-2.973,7.794,0,10.766
	c7.735,7.735,17.893,11.602,28.054,11.602c10.158,0,20.321-3.869,28.055-11.602c2.973-2.973,2.973-7.793,0-10.766
	C282.838,314.27,278.017,314.271,275.044,317.243z"/>
<path d="M255.999,452.749c-13.713,0-24.871,11.157-24.871,24.871c0,13.713,11.157,24.871,24.871,24.871
	c13.713,0,24.871-11.157,24.871-24.871C280.87,463.906,269.713,452.749,255.999,452.749z M255.999,487.263
	c-5.317,0-9.644-4.326-9.644-9.644c0-5.317,4.326-9.644,9.644-9.644c5.317,0,9.644,4.326,9.644,9.644
	C265.643,482.937,261.317,487.263,255.999,487.263z"/>
<path d="M421.323,212.538h-24.775v-66.809c0-15.872-10.615-29.986-25.815-34.325c-2.202-0.628-4.409-1.235-6.619-1.827
	c-8.572-19.232-20.899-37.726-36.693-55.021c-2.835-3.105-7.652-3.323-10.756-0.488c-3.105,2.835-3.324,7.651-0.488,10.756
	c11.672,12.782,21.29,26.221,28.716,40.1c-58.601-12.765-119.17-12.766-177.771-0.004c18.079-33.726,49.058-64.646,88.877-88.472
	c15.553,9.299,29.838,19.706,42.508,30.975c3.142,2.794,7.954,2.512,10.748-0.63c2.794-3.142,2.512-7.955-0.63-10.748
	c-14.468-12.866-30.891-24.648-48.815-35.02c-2.359-1.365-5.268-1.365-7.628,0.001c-48.707,28.195-85.595,66.632-104.297,108.552
	c-2.211,0.592-4.419,1.199-6.623,1.828c-15.2,4.338-25.815,18.45-25.815,34.318v66.815H90.676c-4.205,0-7.613,3.409-7.613,7.613
	v30.122c0,25.541,19.459,46.621,44.33,49.197c4.207,22.403,14.902,41.659,31.576,56.688c-27.764,26.479-43.527,63.04-43.527,101.677
	v46.551c0,4.205,3.409,7.613,7.613,7.613s7.613-3.409,7.613-7.613v-46.551c0-6.907,0.566-13.739,1.669-20.44
	c5.206-4.667,21.866-18.499,43.032-24.965c0.192,4.087,0.546,9.183,1.197,14.753c0.487,4.176,4.264,7.174,8.445,6.68
	c4.176-0.487,7.167-4.269,6.68-8.445c-1.443-12.367-1.311-22.427-1.309-22.524c0.037-2.285-0.956-4.467-2.703-5.942
	c-1.748-1.474-4.068-2.084-6.312-1.664c-16.843,3.158-31.661,10.849-42.53,17.999c6.838-17.997,17.808-34.33,32.282-47.651
	c22.505,15.123,52.283,23.374,84.885,23.374c32.601,0,62.377-8.249,84.882-23.371c14.474,13.322,25.443,29.654,32.282,47.652
	c-10.87-7.152-25.688-14.843-42.533-18.002c-2.251-0.421-4.565,0.19-6.312,1.664c-1.747,1.474-2.74,3.655-2.703,5.942
	c0.005,0.332,0.382,30.569-7.753,50.796c-9.515-3.099-30.335-12.192-52.184-36.697c-1.445-1.62-3.512-2.547-5.683-2.547
	c-2.17,0-4.238,0.927-5.683,2.547c-21.852,24.509-42.677,33.601-52.174,36.696c-0.84-2.098-1.62-4.387-2.336-6.848
	c-1.176-4.038-5.4-6.361-9.437-5.183c-4.038,1.174-6.358,5.399-5.183,9.437c1.684,5.788,3.722,10.903,6.058,15.204
	c1.534,2.824,4.68,4.381,7.85,3.891c1.259-0.194,29.568-4.892,60.905-36.971c31.337,32.079,59.646,36.777,60.906,36.971
	c0.389,0.06,0.778,0.089,1.162,0.089c2.758,0,5.343-1.502,6.688-3.98c8.877-16.345,11.259-40.48,11.882-53.862
	c21.092,6.463,37.815,20.312,43.028,24.968c1.101,6.698,1.668,13.527,1.668,20.43v46.551c0,4.205,3.409,7.613,7.613,7.613
	s7.613-3.409,7.613-7.613v-46.551c0-38.636-15.762-75.197-43.525-101.675c16.676-15.03,27.371-34.287,31.579-56.691
	c24.868-2.58,44.323-23.658,44.323-49.196v-30.123C428.936,215.947,425.528,212.538,421.323,212.538z M130.678,178.682
	c7.647-7.309,15.556-14.531,23.615-21.526c10.649,4.916,21.214,10.142,31.467,15.567c2.682,1.419,5.949,1.112,8.318-0.786
	c9.046-7.24,18.431-14.348,27.955-21.173c10.109,5.892,20.114,12.086,29.799,18.451c2.538,1.668,5.825,1.668,8.363,0
	c9.674-6.358,19.678-12.552,29.798-18.45c9.518,6.821,18.903,13.929,27.953,21.173c2.367,1.896,5.636,2.204,8.319,0.786
	c10.255-5.427,20.815-10.653,31.456-15.566c8.057,6.995,15.962,14.215,23.604,21.523v27.81
	C340.734,193.729,298.63,187.265,256,187.265c-42.628,0-84.733,6.464-125.322,19.227v-27.809H130.678z M145.445,126.047
	c72.326-20.646,148.783-20.646,221.11,0c8.695,2.482,14.767,10.575,14.767,19.682v12.101c-5.705-5.226-11.508-10.384-17.381-15.41
	c-2.243-1.921-5.397-2.368-8.09-1.151c-10.89,4.93-21.734,10.196-32.296,15.683c-9.339-7.361-18.991-14.561-28.749-21.445
	c-2.418-1.706-5.607-1.857-8.174-0.385c-10.365,5.939-20.645,12.199-30.62,18.645c-9.986-6.453-20.266-12.713-30.621-18.646
	c-2.568-1.471-5.755-1.321-8.174,0.385c-9.763,6.888-19.416,14.088-28.751,21.445c-10.56-5.484-21.407-10.749-32.305-15.683
	c-2.693-1.218-5.844-0.769-8.089,1.15c-5.878,5.027-11.684,10.188-17.393,15.416v-12.11
	C130.678,136.62,136.75,128.529,145.445,126.047z M98.289,250.274v-22.509h27.066v12.08h-12.347c-4.205,0-7.613,3.409-7.613,7.613
	c0,4.205,3.409,7.613,7.613,7.613h12.347v21.941c0,2.285,0.063,4.544,0.18,6.778C109.999,280.555,98.289,266.757,98.289,250.274z
	 M338.279,348.712c-20.45,16.169-49.669,25.073-82.277,25.073s-61.827-8.904-82.277-25.073
	c-21.682-17.143-33.143-41.937-33.143-71.698v-56.857c0-0.253,0.009-0.516,0.01-0.77c37.455-11.21,76.201-16.893,115.406-16.893
	c39.208,0,77.956,5.683,115.413,16.895c0.002,0.254,0.01,0.517,0.01,0.768v27.234c0,0.023-0.003,0.046-0.003,0.069
	c0,0.023,0.003,0.046,0.003,0.069v29.485C371.422,306.775,359.962,331.569,338.279,348.712z M413.71,250.274
	c0,16.481-11.706,30.276-27.24,33.515c0.117-2.234,0.18-4.492,0.18-6.776v-21.942h12.341c4.205,0,7.613-3.409,7.613-7.613
	c0-4.205-3.409-7.613-7.613-7.613h-12.341v-12.08h27.06V250.274z"/>
<g>
</g>
<g>
</g>
<g>
</g>
<g>
</g>
<g>
</g>
<g>
</g>
<g>
</g>
<g>
</g>
<g>
</g>
<g>
</g>
<g>
</g>
<g>
</g>
<g>
</g>
<g>
</g>
<g>
</g>
</svg>
