<?xml version="1.0"?>
<svg xmlns="http://www.w3.org/2000/svg" xmlns:xlink="http://www.w3.org/1999/xlink" version="1.1" id="Capa_1" x="0px" y="0px" viewBox="0 0 458.71 458.71" style="enable-background:new 0 0 458.71 458.71;" xml:space="preserve" width="512px" height="512px" class="hovered-paths"><g><path style="fill:#FFFFFF" d="M229.355,16.196c118.073,0,213.682,95.608,213.682,213.159s-95.608,213.159-213.682,213.159  S15.673,346.906,15.673,229.355S111.282,16.196,229.355,16.196z" data-original="#4DCFE0" class="" data-old_color="#4DCFE0"/><g>
	<path style="fill:#3B4D50" d="M229.355,458.188C102.922,458.188,0,355.788,0,229.355S102.922,0.522,229.355,0.522   s229.355,102.4,229.355,228.833S355.788,458.188,229.355,458.188z M229.355,31.869c-109.192,0-198.008,88.816-198.008,197.486   s88.816,197.486,198.008,197.486s198.008-88.816,198.008-197.486S338.547,31.869,229.355,31.869z" data-original="#3A2C51" class="hovered-path active-path" data-old_color="#3A2C51"/>
	<path style="fill:#3B4D50" d="M175.543,310.335c-4.18,0-7.837-1.567-10.971-4.702c-6.269-6.269-6.269-16.196,0-21.943   l53.812-53.812V118.596c0-8.882,6.792-15.673,15.673-15.673s15.673,6.792,15.673,15.673v117.551c0,4.18-1.567,8.359-4.702,10.971   l-58.514,58.514C183.38,308.767,179.722,310.335,175.543,310.335z" data-original="#3A2C51" class="hovered-path active-path" data-old_color="#3A2C51"/>
</g></g> </svg>
