<svg id="Filled" height="512" viewBox="0 0 512 512" width="512" xmlns="http://www.w3.org/2000/svg"><path d="m296 80h-48c-114.875 0-208 93.125-208 208v64h336v-80l80 80v-112a160 160 0 0 0 -160-160z" fill="#dc2027"/><rect fill="#e6e6e6" height="96" rx="32" width="368" x="24" y="336"/><circle cx="456" cy="352" fill="#e6e6e6" r="32"/><path d="m376 272c-9.152-48.5-18.354-71.52-48-80" fill="#dc2027"/><path d="m464 312.805v-72.805c0-92.636-75.364-168-168-168h-48a216 216 0 0 0 -216 216v48h.028a39.964 39.964 0 0 0 -16.028 32v32a40.045 40.045 0 0 0 40 40h304a40.045 40.045 0 0 0 40-40v-32a39.964 39.964 0 0 0 -16.028-32h.028v-44.686l38.644 38.644a39.985 39.985 0 1 0 41.356-17.153zm-80 55.195v32a24.027 24.027 0 0 1 -24 24h-304a24.027 24.027 0 0 1 -24-24v-32a24.027 24.027 0 0 1 24-24h304a24.027 24.027 0 0 1 24 24zm-.608-99.922c-9.431-49-20.076-74.179-52.945-83.694l-.146-.044c-.034-.01-.066-.022-.1-.031a8 8 0 1 0 -4.4 15.374c23.467 6.713 32.593 22.469 42.2 73.072v56.042a40.028 40.028 0 0 0 -8-.805h-304.001a40.028 40.028 0 0 0 -8 .805v-40.797c0-110.28 89.72-200 200-200h48c83.813 0 152 68.187 152 152v72.805a39.764 39.764 0 0 0 -14.042 5.839zm72.608 107.922a24 24 0 1 1 24-24 24.028 24.028 0 0 1 -24 24z"/></svg>